<svg id="Capa_1" xmlns="http://www.w3.org/2000/svg" viewBox="0 0 221.17 24.84"><defs><style>.cls-1{fill:#1e4570;}.cls-2{fill:#fff;}</style></defs><path class="cls-2" d="M32.29,20.58h-3.83l-.61-2.53h-6.3l-1.14,2.53h-3.81l7.65-15.92h3.74l4.3,15.92Zm-5.25-5.81l-1.39-5.74-2.6,5.74h3.99Z"/><path class="cls-2" d="M41.05,20.58h-.02l.16-1.32h-.16c-.22,.43-1.64,1.55-3.56,1.55-2.51,0-4.96-1.86-4.96-5.38,0-3.7,2.62-6.73,6.08-6.73,2.11,0,3.18,1.12,3.39,1.55h.11l.16-1.32h3.48l-1.64,15.92h-3.5l.47-4.26Zm-2.53-2.87c1.48,0,3.21-1.08,3.21-3.32,0-1.93-1.37-2.6-2.56-2.6-1.48,0-3.21,1.08-3.21,3.32,0,1.93,1.39,2.6,2.56,2.6"/><path class="cls-2" d="M57.92,20.58h-3.48l.16-1.46c-.74,.97-1.93,1.68-3.56,1.68-2.33,0-4.26-1.46-3.9-5.02l.72-6.86h3.48l-.65,6.26c-.16,1.46,.49,2.53,1.95,2.53s2.2-1.08,2.38-2.53l.65-6.26h3.48l-1.21,11.66Z"/><path class="cls-2" d="M61.26,8.92h3.48l-1.23,11.66h-3.48l1.23-11.66Zm2.4-4.93h2.83l-2.06,3.54h-2.78l2.02-3.54Z"/><path class="cls-2" d="M66.19,13.43c0-5.09,4.13-8.99,9.06-8.99,2.22,0,4.78,.83,6.19,3.59l-2.71,1.8c-.87-1.35-2.09-2.02-3.72-2.02-2.87,0-5.16,2.18-5.16,5.18,0,2.78,1.88,4.46,4.28,4.46,1.59,0,2.82-.67,3.99-2.02l2.35,1.79c-2,2.76-4.55,3.59-6.79,3.59-4.17,0-7.49-2.83-7.49-7.38"/><path class="cls-2" d="M81.37,15.24c0-3.77,3.05-6.55,6.68-6.55,2.58,0,5.65,1.82,5.65,5.58s-3.05,6.52-6.68,6.52c-2.56,0-5.65-1.82-5.65-5.56m5.83,2.49c1.68,0,3.14-1.23,3.14-3.34,0-1.77-1.3-2.62-2.47-2.62-1.68,0-3.14,1.23-3.14,3.36,0,1.75,1.3,2.6,2.47,2.6"/><path class="cls-2" d="M102.6,13.99c.18-1.48-.56-2.2-1.7-2.2s-1.95,.72-2.13,2.2l-.67,6.59h-3.48l1.21-11.66h3.47l-.16,1.39c.69-.94,1.79-1.61,3.3-1.61,1.39,0,2.58,.58,3.21,1.84,.78-1.05,2.08-1.84,3.9-1.84,2.51,0,4.24,1.57,3.88,5.16l-.72,6.73h-3.48l.67-6.59c.18-1.48-.56-2.2-1.7-2.2s-1.95,.72-2.13,2.2l-.67,6.59h-3.48l.67-6.59Z"/><path class="cls-2" d="M116.03,8.92h3.48l-1.21,11.66h-3.48l1.21-11.66Zm.43-4.26h3.48l-.29,3.03h-3.48l.29-3.03Z"/><path class="cls-2" d="M120.41,15.24c0-3.72,2.94-6.55,6.48-6.55,3.03,0,6.3,2.13,5.07,7.4h-8.32c.38,1.26,1.52,1.88,3,1.88,1.01,0,1.97-.27,2.89-.92l1.32,1.66c-1.08,1.19-2.73,2.08-4.8,2.08-3,0-5.65-1.95-5.65-5.56m8.7-1.64c-.13-1.39-1.25-2-2.49-2-1.43,0-2.42,.83-2.87,2h5.36Z"/><path class="cls-2" d="M134.33,8.92h3.47l-.16,1.46c.74-.96,1.93-1.68,3.56-1.68,2.33,0,4.26,1.46,3.9,5.02l-.72,6.86h-3.47l.65-6.26c.16-1.46-.49-2.53-1.95-2.53s-2.2,1.08-2.38,2.53l-.65,6.26h-3.48l1.21-11.66Z"/><polygon class="cls-2" points="152.34 11.95 147.22 11.95 147.54 8.92 158.26 8.92 151.64 17.55 156.93 17.55 156.62 20.58 145.72 20.58 152.34 11.95"/><path class="cls-2" d="M157.72,15.42c0-3.7,2.62-6.73,6.08-6.73,2.11,0,3.18,1.12,3.39,1.55h.11l.16-1.32h3.48l-1.21,11.66h-3.48l.16-1.32h-.16c-.22,.43-1.64,1.55-3.56,1.55-2.51,0-4.96-1.86-4.96-5.38m6.01,2.29c1.48,0,3.21-1.08,3.21-3.32,0-1.93-1.37-2.6-2.56-2.6-1.48,0-3.21,1.08-3.21,3.32,0,1.93,1.39,2.6,2.56,2.6"/><polygon class="cls-2" points="176.19 7.91 172.61 7.91 172.97 4.66 183.73 4.66 183.39 7.91 179.74 7.91 178.41 20.58 174.87 20.58 176.19 7.91"/><path class="cls-2" d="M181.42,15.24c0-3.77,3.05-6.55,6.68-6.55,2.58,0,5.65,1.82,5.65,5.58s-3.05,6.52-6.68,6.52c-2.56,0-5.65-1.82-5.65-5.56m5.83,2.49c1.68,0,3.14-1.23,3.14-3.34,0-1.77-1.3-2.62-2.47-2.62-1.68,0-3.14,1.23-3.14,3.36,0,1.75,1.3,2.6,2.47,2.6"/><path class="cls-2" d="M194.69,15.42c0-3.7,2.62-6.73,6.08-6.73,2.11,0,3.18,1.12,3.39,1.55h.11l.61-5.58h3.47l-1.66,15.92h-3.48l.16-1.32h-.16c-.22,.43-1.64,1.55-3.56,1.55-2.51,0-4.96-1.86-4.96-5.38m6.01,2.29c1.48,0,3.21-1.08,3.21-3.32,0-1.93-1.37-2.6-2.56-2.6-1.48,0-3.21,1.08-3.21,3.32,0,1.93,1.39,2.6,2.56,2.6"/><path class="cls-2" d="M208.84,15.24c0-3.77,3.05-6.55,6.68-6.55,2.58,0,5.65,1.82,5.65,5.58s-3.05,6.52-6.68,6.52c-2.56,0-5.65-1.82-5.65-5.56m5.83,2.49c1.68,0,3.14-1.23,3.14-3.34,0-1.77-1.3-2.62-2.47-2.62-1.68,0-3.14,1.23-3.14,3.36,0,1.75,1.3,2.6,2.47,2.6"/><polygon class="cls-2" points="6.73 20.5 2.5 20.5 3.94 0 8.18 0 6.73 20.5"/><polygon class="cls-2" points="13.18 20.5 8.81 20.5 10.3 0 14.67 0 13.18 20.5"/><polygon class="cls-2" points=".79 9.41 1.58 5.57 16.42 5.57 15.63 9.41 .79 9.41"/><polygon class="cls-2" points="0 15.4 .79 11.57 15.63 11.57 14.84 15.4 0 15.4"/><rect class="cls-2" x="6.96" y="8.97" width="2.81" height="2.6"/><rect class="cls-2" x="7.38" y="9.42" width="2.4" height="2.17"/><polygon class="cls-1" points="7.38 7.89 7.33 12.83 11.29 10.36 7.38 7.89"/></svg>
